<svg width="191" height="128" viewBox="0 0 191 128" fill="none" xmlns="http://www.w3.org/2000/svg">
<path d="M47.761 25.7611L47.7565 25.7613C47.7493 25.7616 47.7422 25.76 47.7358 25.7567L47.7324 25.7549C47.1424 25.4558 46.5365 25.1892 45.9174 24.9565C45.3035 24.7231 44.6671 24.4971 44.0484 24.3158L44.0986 24.3231L44.0896 24.3233C44.0742 24.3238 44.0589 24.3218 44.0441 24.3174L44.0317 24.3136C40.7627 23.2882 37.3683 22.7165 33.9438 22.6145C32.237 22.564 30.5288 22.6184 28.8287 22.7776L23.6758 23.213C20.2394 23.4902 16.7965 23.6884 13.3553 23.9075C9.91325 24.116 6.47272 24.3422 3.03708 24.6283L3.1106 24.3651C3.71854 24.8069 4.2747 25.3159 4.76851 25.8823C5.2571 26.4555 5.67352 27.0865 6.00843 27.7612C6.33248 28.4402 6.58932 29.1494 6.77527 29.8785C6.95143 30.6091 7.06445 31.3536 7.11308 32.1035C7.19663 33.6024 7.09582 35.1059 6.81292 36.5802C6.54533 38.0611 6.1254 39.5102 5.55982 40.9047L5.15062 40.3781C7.56803 39.9214 9.98471 39.4606 12.4052 39.0217L19.664 37.6891L19.2674 38.0465L19.32 37.8907L19.304 37.9331C19.6552 36.822 20.3785 35.8658 21.3521 35.2254C22.3198 34.5868 23.4676 34.277 24.6252 34.3421C25.7878 34.4168 26.8908 34.883 27.7544 35.6649C27.8672 35.7553 27.969 35.8585 28.0578 35.9726L28.3383 36.3022C28.5065 36.5345 28.6615 36.776 28.8027 37.0256C28.937 37.2731 29.0286 37.5277 29.1426 37.7786C29.1958 37.9049 29.2537 38.0298 29.3025 38.1571L29.4222 38.5462C29.9999 40.6038 30.222 42.7449 30.0788 44.8773C29.9838 46.9808 29.6886 49.0705 29.1972 51.1181L28.8344 50.754L33.7139 49.7336L38.6036 48.756C38.6159 48.7535 38.6287 48.7559 38.6392 48.7628C38.6498 48.7696 38.6572 48.7802 38.66 48.7925C38.6628 48.8047 38.6607 48.8176 38.6542 48.8283C38.6477 48.839 38.6372 48.8467 38.625 48.8499L33.8025 50.1148L28.9714 51.3432C28.9228 51.3556 28.8718 51.3554 28.8233 51.3429C28.7747 51.3304 28.7301 51.3058 28.6936 51.2715C28.657 51.2371 28.6297 51.1942 28.6141 51.1465C28.5986 51.0988 28.5953 51.048 28.6045 50.9987L28.6084 50.979C28.9984 48.9584 29.221 46.909 29.2742 44.8517C29.3619 42.8213 29.1037 40.7907 28.5107 38.8467L28.3963 38.4917C28.3506 38.3771 28.2968 38.2667 28.2477 38.1539C28.1436 37.9335 28.0562 37.6961 27.9401 37.4891C27.8086 37.2969 27.7055 37.0831 27.5561 36.9061L27.3274 36.6447C27.2571 36.5528 27.1746 36.4709 27.0823 36.4012C26.3828 35.7848 25.496 35.4223 24.565 35.3722C23.6298 35.3185 22.7021 35.5671 21.9191 36.0813C21.1393 36.5958 20.5558 37.3582 20.2629 38.2453L20.2469 38.2879C20.2444 38.3001 20.2407 38.3119 20.2357 38.3233L20.2034 38.3968C20.1705 38.4703 20.1201 38.5347 20.0566 38.5842C19.9931 38.6338 19.9183 38.6669 19.839 38.6808L12.5625 39.9127C10.1379 40.3286 7.7094 40.7227 5.2817 41.1209C5.21432 41.1319 5.1452 41.1246 5.08163 41.0997C5.01806 41.0747 4.9624 41.0331 4.9205 40.9792C4.8786 40.9253 4.85203 40.861 4.84357 40.7933C4.83512 40.7255 4.84509 40.6567 4.87245 40.5942C5.44937 39.2611 5.89924 37.8766 6.21609 36.4591C6.54566 35.0394 6.69388 33.5836 6.65719 32.1267C6.63336 31.4004 6.54723 30.6776 6.39975 29.9661C6.2435 29.2573 6.00863 28.5681 5.69952 27.9113C5.38443 27.2578 4.99045 26.6453 4.52637 26.0876C4.05494 25.5342 3.5227 25.0355 2.9397 24.6011L2.93564 24.598C2.91248 24.58 2.89529 24.5554 2.88634 24.5275C2.87739 24.4995 2.87708 24.4695 2.88547 24.4414C2.89385 24.4133 2.91053 24.3884 2.93333 24.3699C2.95612 24.3514 2.98396 24.3403 3.0132 24.3379C6.4494 24.0587 9.88087 23.7217 13.3105 23.3632C16.7411 23.0158 20.17 22.6476 23.6053 22.3583L28.7599 21.944C30.4949 21.796 32.2382 21.7693 33.977 21.8641C35.715 21.9604 37.4432 22.1874 39.1471 22.5434C40.8494 22.8878 42.5215 23.3677 44.1474 23.9784L44.0897 23.9688L44.0987 23.969L44.1123 23.9694C44.1248 23.9698 44.1372 23.9722 44.1491 23.9763C44.7934 24.2064 45.3964 24.4622 46.0098 24.7363C46.6199 25.0087 47.2114 25.321 47.7805 25.6711L47.7566 25.6647L47.7611 25.6649C47.7735 25.6653 47.7853 25.6706 47.7939 25.6796C47.8026 25.6886 47.8074 25.7006 47.8074 25.713C47.8074 25.7255 47.8026 25.7374 47.7939 25.7464C47.7853 25.7554 47.7735 25.7607 47.7611 25.7612L47.761 25.7611ZM68.833 38.604C68.5584 37.2283 68.0072 35.9227 67.2129 34.7665C66.8165 34.2121 66.3606 33.7029 65.8533 33.2479C65.3396 32.799 64.789 32.3942 64.2073 32.0377C63.0124 31.3391 61.7375 30.7873 60.4103 30.3943C59.0645 29.9868 57.6883 29.687 56.2948 29.498L56.2679 29.4954C55.7917 29.3626 55.3172 29.2209 54.8442 29.0701C55.3401 29.0945 55.834 29.1298 56.3265 29.1733L56.2998 29.1706C57.7549 29.1071 59.2117 29.2458 60.6287 29.5827C62.0677 29.9068 63.4443 30.4633 64.7043 31.2303C65.9891 32.0044 67.0587 33.089 67.8149 34.3844C68.542 35.6681 68.8948 37.1299 68.833 38.604Z" fill="black"/>
<path d="M23.2224 34.6366C24.0615 34.3117 24.9101 34.0289 25.7646 33.7724C26.6183 33.5124 27.4764 33.2723 28.3389 33.0522C29.1989 32.8204 30.0683 32.6313 30.9344 32.427C31.8052 32.2443 32.6744 32.0533 33.5519 31.8998L33.7547 31.8643L33.8821 31.9616C34.2419 32.2396 34.5738 32.5517 34.8733 32.8937C35.1705 33.2191 35.4435 33.5658 35.6902 33.931C35.9375 34.2917 36.1594 34.6691 36.3543 35.0606C36.5508 35.4479 36.7169 35.8498 36.8513 36.2628C36.5999 35.911 36.3411 35.5706 36.0748 35.2414C35.8047 34.9127 35.5322 34.5847 35.2479 34.2871C34.9577 33.9853 34.6608 33.6933 34.3524 33.4185C34.051 33.1534 33.7354 32.905 33.4069 32.6745L33.737 32.7363C32.8769 32.9669 32.0087 33.1603 31.1427 33.3653C30.2719 33.5477 29.4044 33.7454 28.5274 33.9004C27.6533 34.0684 26.7745 34.215 25.891 34.3404C25.0084 34.4707 24.1201 34.5747 23.2224 34.6366ZM11.0054 23.8269C12.0341 24.7783 12.8435 25.942 13.3776 27.2374C13.9361 28.5325 14.2885 29.907 14.4219 31.3111C14.5335 32.7118 14.4476 34.1212 14.1667 35.4979C14.1327 35.669 14.1067 35.8414 14.0662 36.0106L13.9225 36.5134L13.6208 37.5102C13.3771 38.16 13.092 38.7935 12.7931 39.4117C12.8904 38.7221 13.051 38.061 13.1629 37.3922L13.3041 36.387L13.3819 35.8887C13.4028 35.7222 13.4092 35.5536 13.4235 35.3865C13.4468 35.0515 13.4735 34.7183 13.5087 34.3864C13.5335 34.0538 13.5204 33.7193 13.5285 33.3869C13.5435 32.7231 13.5217 32.059 13.4634 31.3977C13.3412 30.0753 13.0778 28.7697 12.6779 27.5033C12.275 26.2133 11.7132 24.9783 11.0054 23.8269Z" fill="black"/>
<path d="M37.1108 33.8485C37.8305 33.5798 38.5547 33.3156 39.2836 33.0651C39.2432 33.3625 39.2219 33.6623 39.2198 33.9624C38.5958 34.1583 37.9671 34.3451 37.334 34.5273C36.9058 34.6503 36.4776 34.7733 36.0449 34.8962C35.9857 34.8051 35.9264 34.7186 35.8672 34.6366C35.808 34.55 35.7442 34.468 35.6896 34.3906C36.1633 34.2039 36.6371 34.0262 37.1108 33.8485ZM44.2897 32.3089C43.7339 32.5002 43.1873 32.6916 42.6316 32.8783H42.627C42.454 32.6043 42.2524 32.3493 42.0258 32.1176L42.2307 32.0493C42.8457 31.8488 43.4606 31.6484 44.0756 31.4526C44.1485 31.7623 44.2259 32.0493 44.2897 32.3089ZM41.1603 29.3071C42.0759 29.011 42.9915 28.7149 43.9116 28.4279C43.8121 28.7337 43.7644 29.0539 43.7704 29.3754C43.0006 29.6487 42.2216 29.9084 41.4473 30.1726C39.73 30.7328 38.0036 31.284 36.2635 31.7805C35.4573 32.0174 34.6464 32.2436 33.8311 32.4592C32.8927 32.7098 31.9544 32.9466 31.0024 33.1516C31.3804 32.9831 31.7585 32.8145 32.1411 32.6506C32.1457 32.6506 32.1457 32.6506 32.1502 32.646C33.4348 32.0994 34.7376 31.5938 36.0403 31.1063C37.7348 30.4687 39.4476 29.8856 41.1603 29.3071ZM48.3255 27.6946C48.2481 27.7265 48.1706 27.7583 48.0932 27.7857C47.894 27.619 47.6695 27.4853 47.4282 27.3894C47.6741 27.321 47.9201 27.2527 48.1661 27.1844C48.2253 27.3757 48.28 27.5488 48.3255 27.6946ZM5.21671 40.7478C-5.06708 31.3616 3.02655 24.4851 3.02655 24.4851C10.2142 29.6897 5.21671 40.7478 5.21671 40.7478ZM28.9018 51.047C20.4157 53.5783 19.7516 38.1844 19.7516 38.1844C19.7616 38.1528 19.7716 38.1214 19.7818 38.0903C21.0577 34.1709 26.5268 33.664 28.4135 37.3286C30.9703 42.2946 28.9018 51.047 28.9018 51.047ZM35.3028 49.2085C33.8973 52.6717 32.4594 56.0992 31.1362 59.5583C29.7839 62.9748 28.6444 66.4717 27.7241 70.029C27.507 70.902 27.3403 71.7867 27.2247 72.6788C27.0992 73.5424 27.1031 74.42 27.2363 75.2825C27.3062 75.6882 27.4439 76.0792 27.6435 76.4393C27.8471 76.7814 28.1292 77.07 28.4666 77.2813C29.2367 77.6717 30.1123 77.8027 30.9629 77.6549C32.7697 77.3413 34.508 76.7152 36.0998 75.8048C36.5041 75.5809 36.9089 75.3597 37.3082 75.126L38.4884 74.3916C39.2848 73.9193 40.0312 73.3664 40.7953 72.847C41.5565 72.3227 42.2806 71.7446 43.0228 71.1979L44.101 70.3292C44.4598 70.0396 44.829 69.7646 45.1751 69.4593C45.871 68.8543 46.5953 68.2871 47.2721 67.662L48.3039 66.746L49.309 65.8008C50.644 64.536 51.9282 63.2211 53.1616 61.8563C54.4037 60.5018 55.5955 59.1022 56.7593 57.6794C59.0928 54.8267 61.2655 51.8463 63.2674 48.752C64.2718 47.2018 65.2355 45.6227 66.1586 44.0148C67.0831 42.4083 67.9678 40.7718 68.7736 39.0944L68.955 39.1589C67.8649 42.76 66.3956 46.2352 64.5717 49.526C62.7715 52.8425 60.6936 56.0005 58.3604 58.9663C56.0021 61.9207 53.3838 64.6577 50.5369 67.1447L49.4684 68.0737L48.3699 68.9671C47.6423 69.5677 46.8809 70.1267 46.1197 70.683C45.3571 71.2375 44.5653 71.7522 43.7806 72.2718C42.9727 72.7588 42.1861 73.2746 41.3649 73.7344C40.5447 74.1956 39.7352 74.6708 38.8987 75.0981C38.0695 75.5365 37.2427 75.9784 36.3954 76.3883C34.7079 77.2601 32.908 77.8945 31.0469 78.2737C30.0543 78.4831 29.0213 78.379 28.0905 77.9758C27.6099 77.7347 27.1941 77.382 26.878 76.9471C26.5807 76.517 26.3537 76.0423 26.2055 75.5409C25.9429 74.5796 25.8276 73.5841 25.8636 72.5882C25.8899 71.6224 25.9868 70.6599 26.1535 69.7082C26.4936 67.8382 26.9925 66.0006 27.6446 64.2152C28.2694 62.4335 28.9836 60.6926 29.7589 58.9827C30.1386 58.1244 30.5514 57.2817 30.967 56.4417C31.3791 55.6 31.8137 54.7697 32.2611 53.9468C33.1527 52.2995 34.0925 50.6794 35.1331 49.1174L35.3028 49.2085ZM12.6626 26.4801C15.2859 26.0853 17.9163 25.7853 20.5491 25.5186C23.1816 25.2459 25.8181 25.0294 28.4555 24.8238C31.0942 24.6362 33.7338 24.4605 36.3776 24.3408C39.0209 24.2151 41.6667 24.1235 44.3197 24.1273C41.6965 24.5233 39.0661 24.8238 36.4333 25.0902C33.8009 25.3626 31.1643 25.5791 28.5268 25.7836C25.888 25.9701 23.2484 26.1457 20.6046 26.2651C17.9613 26.3906 15.3155 26.4827 12.6626 26.4801Z" fill="black"/>
<path d="M44.8823 70.6718C44.505 67.3264 44.1422 63.9756 43.8173 60.6211L43.6929 59.3633L43.6307 58.7343C43.6244 58.6852 43.6225 58.6219 43.6128 58.5846C43.6014 58.5548 43.5921 58.5242 43.5851 58.4931C43.5535 58.409 43.5177 58.3267 43.4776 58.2464C43.1059 57.542 42.6182 56.8374 42.1655 56.1342C41.2419 54.7265 40.351 53.2831 39.5548 51.7806C39.1608 51.0267 38.7897 50.2582 38.4653 49.465C38.1443 48.6617 37.8752 47.8619 37.5965 47.0722C37.0368 45.4864 36.482 43.8992 35.9479 42.3047L35.1375 39.9161L34.9349 39.319C34.8559 39.093 34.8029 38.8587 34.7771 38.6207C34.7206 38.1367 34.7888 37.6462 34.9753 37.196C35.1609 36.7167 35.5138 36.3209 35.9687 36.0819C36.439 35.8753 36.9699 35.854 37.4552 36.0223C38.2898 36.3354 39.0515 36.8162 39.6931 37.435L39.1923 37.7163C39.0765 36.904 39.0022 36.0863 38.9696 35.2664C38.9538 34.8573 38.9512 34.4436 38.9677 34.0341C39.0024 33.6212 39.019 33.2015 39.0886 32.7918C39.1485 32.3554 39.3043 31.9377 39.5448 31.5686C39.6882 31.3614 39.8999 31.2111 40.1429 31.1441C40.3763 31.0961 40.6181 31.1095 40.8448 31.1827C41.6629 31.4609 42.3495 32.0314 42.7727 32.7848L42.6274 32.7056H42.6319L42.7261 32.7061L42.7762 32.7832C43.056 33.2317 43.3093 33.6962 43.5348 34.1743C43.6395 34.4017 43.7623 34.6202 43.902 34.8279C43.9882 34.93 43.9869 34.9286 44.1095 34.9357C44.148 34.9396 44.1868 34.9316 44.2206 34.9128C44.2544 34.8941 44.2817 34.8654 44.2988 34.8307C44.3838 34.6126 44.4178 34.3779 44.3984 34.1447C44.3917 33.8889 44.3716 33.6336 44.3382 33.3799C44.2728 32.8671 44.1719 32.3594 44.036 31.8606C43.8974 31.3528 43.7858 30.838 43.7015 30.3184C43.6057 29.7869 43.5983 29.2433 43.6796 28.7095C43.7306 28.4327 43.8334 28.1681 43.9825 27.9295C44.1393 27.6883 44.3533 27.4896 44.6055 27.351C45.1033 27.1074 45.657 27.0007 46.2097 27.0418L46.1812 27.0431C46.4169 27.0204 46.6545 27.0282 46.8882 27.0664C47.1195 27.1037 47.3457 27.1677 47.5623 27.2571C48.0003 27.4406 48.3799 27.7402 48.6602 28.1235L48.6426 28.1031C48.6791 28.1417 48.7003 28.1922 48.7024 28.2452L48.699 29.0219L48.3428 28.3307L48.3382 28.3217L48.3337 28.3131L48.326 28.2913C47.6882 26.6002 47.2584 24.8379 47.0461 23.043C47.0012 22.578 47.0076 22.1095 47.0651 21.6458C47.1083 21.1289 47.3323 20.6437 47.6978 20.2755C47.9111 20.0909 48.172 19.9697 48.4507 19.9257C48.7207 19.8941 48.9944 19.922 49.2526 20.0074C49.7138 20.1804 50.1354 20.4448 50.4919 20.7848C51.1614 21.4211 51.7498 22.1375 52.2438 22.9179C52.7416 23.6762 53.1991 24.4602 53.6143 25.2667C54.4791 26.8659 55.1615 28.5572 55.6486 30.3088C56.1127 32.0431 56.551 33.7616 57.1462 35.4199C57.7467 37.0577 58.4713 38.7057 59.6242 39.9002C60.159 40.4862 60.8758 40.8747 61.6588 41.0028C62.0608 41.0447 62.4668 41.0282 62.8642 40.9539C63.2876 40.8955 63.7067 40.8095 64.1189 40.6965C64.9458 40.4725 65.7431 40.1511 66.494 39.7389C67.2368 39.3331 67.9231 38.8314 68.535 38.2467L69.0269 37.7584L69.2889 38.3559C69.5728 39.0271 69.7453 39.7402 69.7996 40.4669C69.8586 41.1716 69.8334 41.8808 69.7243 42.5795C69.4927 43.9619 68.9924 45.2855 68.2518 46.4755C67.8841 47.08 67.4368 47.6322 66.9219 48.1173C66.398 48.5827 65.8258 48.9907 65.2151 49.3342C64.6141 49.672 63.9984 49.9523 63.434 50.2671C62.8829 50.5338 62.4114 50.9406 62.0668 51.4466C61.7795 51.995 61.6275 52.6042 61.6235 53.2233C61.5796 53.8821 61.5546 54.5465 61.5468 55.2129C61.5301 56.5458 61.5558 57.883 61.6033 59.2194C61.6546 60.5557 61.7066 61.8933 61.7931 63.2289C61.8878 64.562 61.9617 65.9049 62.1859 67.2184L62.0972 67.2389C61.8111 65.9204 61.6785 64.585 61.5236 63.252C61.3824 61.9177 61.2536 60.5815 61.1656 59.2418C61.0767 57.9022 61.0094 56.5606 60.9847 55.2138C60.9719 54.5405 60.9773 53.8645 61.0007 53.1858C60.989 52.4614 61.1527 51.745 61.4778 51.0976C61.8729 50.4802 62.4235 49.9776 63.0744 49.6403C63.6742 49.2917 64.2748 49.0051 64.8357 48.6749C65.3876 48.3508 65.9035 47.9689 66.3747 47.5358C66.8273 47.092 67.2182 46.5894 67.5369 46.0415C68.1953 44.9371 68.6322 43.7151 68.8233 42.4436C68.9186 41.8171 68.939 41.1814 68.8839 40.55C68.8351 39.9385 68.6918 39.3383 68.4592 38.7707L69.2129 38.8799C67.8545 40.1848 66.1879 41.1249 64.3684 41.6125C63.919 41.7375 63.462 41.8332 63.0001 41.8989C62.7642 41.9244 62.5481 41.9687 62.2956 41.978L61.9168 41.9894C61.7902 41.9818 61.6632 41.9672 61.5365 41.9553C60.5372 41.8072 59.6197 41.3187 58.9391 40.5723C57.6132 39.1561 56.9063 37.4214 56.2946 35.7206C55.6994 34.0055 55.2725 32.2496 54.8305 30.5269C54.7179 30.0977 54.6055 29.6704 54.4698 29.2654C54.3313 28.8524 54.1749 28.441 54.0119 28.0318C53.6847 27.2135 53.3238 26.4051 52.9302 25.6148C52.5415 24.8243 52.1114 24.0547 51.6417 23.3095C51.1904 22.5704 50.654 21.8868 50.0436 21.2725C49.7606 20.9847 49.4234 20.7558 49.0514 20.599C48.8856 20.5387 48.7091 20.5139 48.5332 20.5262C48.3677 20.5484 48.2115 20.6155 48.0815 20.7202C47.8123 20.9926 47.6452 21.3494 47.6084 21.7306C47.5447 22.1533 47.5276 22.5818 47.5572 23.0082C47.7228 24.7725 48.1033 26.51 48.6899 28.1821L48.6779 28.1518L48.6823 28.1609L48.3227 28.2464C48.3222 28.2695 48.3264 28.2924 48.3352 28.3138C48.3439 28.3351 48.357 28.3545 48.3735 28.3705L48.3558 28.3499C48.1225 28.0114 47.8005 27.7436 47.4251 27.576C47.048 27.4104 46.6359 27.3402 46.2252 27.3715L46.2072 27.3732L46.1965 27.3729C45.7033 27.3302 45.2075 27.4184 44.7592 27.6286C44.5513 27.7472 44.3729 27.9114 44.2374 28.1088C44.102 28.3062 44.013 28.5318 43.9772 28.7685C43.8983 29.2684 43.9019 29.7778 43.9878 30.2766C44.0663 30.7884 44.1717 31.2956 44.3037 31.7963C44.443 32.3048 44.5504 32.8215 44.6253 33.3433C44.6631 33.6068 44.6871 33.872 44.6971 34.138C44.724 34.4265 44.679 34.7171 44.5662 34.984C44.5196 35.0615 44.4546 35.1263 44.3769 35.1727C44.2991 35.219 44.2112 35.2454 44.1208 35.2495C44.0304 35.2535 43.9404 35.2352 43.8588 35.1961C43.7772 35.1569 43.7066 35.0982 43.6532 35.0252C43.4968 34.8028 43.3596 34.5676 43.2431 34.322C43.0177 33.8583 42.7655 33.4081 42.4877 32.9738L42.6319 33.0514L42.6275 33.0514L42.5337 33.0519L42.482 32.9721C42.1036 32.2985 41.4829 31.7943 40.7461 31.562C40.5961 31.4973 40.428 31.4877 40.2716 31.535C40.1153 31.5823 39.9807 31.6834 39.8917 31.8204C39.7032 32.1406 39.5859 32.4977 39.5478 32.8674C39.494 33.2575 39.492 33.6501 39.4698 34.0436C39.4658 34.4431 39.4803 34.8392 39.5077 35.2382C39.5636 36.0349 39.6593 36.8283 39.7945 37.6154L39.9341 38.4267L39.2937 37.8967C38.7057 37.3595 38.016 36.9456 37.2653 36.6796C36.9455 36.5723 36.5969 36.5895 36.2892 36.7278C36.0017 36.9013 35.7829 37.1689 35.67 37.4852C35.5367 37.8179 35.4907 38.1792 35.5364 38.5346C35.5577 38.7151 35.5996 38.8925 35.6613 39.0634L35.8697 39.6594L36.7034 42.0434C37.2653 43.6307 37.8065 45.2251 38.3429 46.8211C38.6145 47.6212 38.8741 48.4199 39.1691 49.1824C39.4729 49.9504 39.8254 50.7028 40.2021 51.4444C40.9596 52.9279 41.8385 54.3515 42.7207 55.7823C43.1569 56.5064 43.6149 57.1994 44.0071 57.995C44.0582 58.104 44.1022 58.2161 44.139 58.3307C44.1564 58.4021 44.1716 58.4744 44.1844 58.5461C44.1942 58.6118 44.1935 58.6546 44.1985 58.7099L44.243 59.3383L44.3318 60.5954C44.5757 63.9473 44.7816 67.3028 44.9731 70.6638L44.8823 70.6718Z" fill="black"/>
<path d="M50.3703 33.1514L48.3003 28.3275L48.7263 28.1663L50.3703 33.1514Z" fill="black"/>
<path d="M117.818 16.6722C116.138 17.3837 114.388 17.9819 112.636 18.5308C110.874 19.074 109.084 19.5192 107.273 19.8644C105.452 20.2371 103.598 20.4219 101.739 20.4157C100.796 20.4071 99.8561 20.3106 98.931 20.1276C97.9779 19.946 97.0657 19.5929 96.2387 19.0854L96.2789 19.1085C94.8884 18.4147 93.4906 17.7356 92.1078 17.0265L91.6465 16.7898L91.9241 16.3902C91.9575 16.3366 91.9993 16.2887 92.0479 16.2483C92.0713 16.2263 92.0963 16.2062 92.1229 16.1882C92.1648 16.1594 92.214 16.1217 92.2511 16.1022C92.3278 16.06 92.41 16.0079 92.4829 15.9767C92.6333 15.9024 92.7817 15.8388 92.928 15.7832C93.2222 15.6686 93.5139 15.5671 93.8066 15.4802C94.3909 15.2949 94.9788 15.1548 95.5665 15.0173C96.7418 14.7462 97.9213 14.5169 99.1049 14.3294C100.287 14.1307 101.472 13.9562 102.657 13.7953C103.842 13.6274 105.03 13.4876 106.216 13.339L106.055 13.4275L108.481 10.6508C109.292 9.724 110.072 8.78312 110.91 7.86667C112.601 6.05332 114.561 4.51027 116.72 3.29139C117.804 2.68882 118.93 2.16577 120.089 1.72637C121.254 1.29895 122.445 0.949387 123.656 0.679979C126.082 0.0630264 128.595 -0.136192 131.088 0.0908748C133.611 0.402708 136.016 1.34023 138.085 2.81823C140.142 4.31802 141.819 6.28059 142.978 8.54754C143.553 9.68013 144 10.8725 144.313 12.1031L144.516 13.0333C144.573 13.3414 144.627 13.6472 144.674 13.9561C144.772 14.5722 144.852 15.1917 144.914 15.8147C145.047 17.0652 145.078 18.3246 145.005 19.5802C144.937 20.8549 144.705 22.1155 144.313 23.3306L144.156 23.8031L143.68 23.6601L137.254 21.7283L130.81 19.8524C128.662 19.2272 126.509 18.6205 124.347 18.0541C123.267 17.7626 122.184 17.4877 121.097 17.2295C120.552 17.1163 120.009 16.9704 119.46 16.8839L118.637 16.7364L117.818 16.6722ZM117.795 16.5737L118.653 16.5826L119.491 16.6784C120.053 16.7376 120.6 16.8551 121.156 16.9408C122.26 17.1433 123.361 17.36 124.456 17.6019C126.645 18.0877 128.824 18.6138 130.998 19.1583C133.172 19.7014 135.334 20.2892 137.497 20.8729C139.658 21.464 141.82 22.0479 143.973 22.6767L143.34 23.0062C144.062 20.7665 144.057 18.311 143.84 15.9204C143.782 15.32 143.706 14.7207 143.611 14.1227C143.566 13.8239 143.513 13.5245 143.459 13.2282L143.27 12.3572C142.99 11.2009 142.585 10.0786 142.061 9.01012C141 6.86762 139.449 5.00453 137.536 3.57102C135.605 2.14877 133.356 1.22007 130.984 0.865771C128.576 0.581316 126.138 0.698241 123.769 1.21177C121.365 1.64031 119.044 2.44799 116.894 3.60463C114.743 4.77027 112.801 6.28421 111.146 8.08494C109.536 9.92234 108.002 11.8585 106.447 13.7578L106.388 13.8298L106.286 13.8464C105.108 14.0381 103.93 14.2226 102.757 14.4319C101.582 14.6344 100.41 14.8502 99.2452 15.0892C98.0794 15.3256 96.9184 15.5784 95.7713 15.8623C95.1987 16.0056 94.6291 16.162 94.0746 16.3359C93.7954 16.4197 93.523 16.5166 93.2617 16.6194C93.1288 16.6702 93.0036 16.725 92.8862 16.7836C92.8216 16.8113 92.7791 16.8427 92.7245 16.8711C92.7046 16.8829 92.6853 16.8957 92.6668 16.9096C92.6563 16.9162 92.648 16.9222 92.654 16.9185C92.6603 16.9077 92.6372 16.9449 92.6989 16.8556L92.5152 16.2195C93.9069 16.911 95.2833 17.6326 96.6673 18.3394L96.6893 18.3507L96.7076 18.3626C98.1439 19.2984 99.9803 19.568 101.757 19.6318C102.659 19.6538 103.562 19.6272 104.461 19.5519C105.364 19.4868 106.267 19.3777 107.165 19.2375C108.966 18.9681 110.747 18.5595 112.521 18.1202C114.297 17.6741 116.043 17.1556 117.795 16.5737Z" fill="black"/>
<path d="M128.918 2.80469C128.055 3.81806 127.171 4.80304 126.284 5.78271L123.623 8.71707C122.736 9.69343 121.856 10.6759 120.984 11.6645C120.118 12.6591 119.261 13.6596 118.41 14.6835C119.041 13.5107 119.766 12.3903 120.576 11.3329C121.373 10.2663 122.24 9.25652 123.124 8.26518C124.02 7.28433 124.945 6.33058 125.909 5.41719C126.866 4.49478 127.87 3.62276 128.918 2.80469ZM133.524 3.28953C134.237 4.58398 134.868 5.92223 135.412 7.29629C135.966 8.66661 136.45 10.0636 136.863 11.4874C137.273 12.912 137.593 14.3611 137.82 15.826C138.047 17.2922 138.11 18.7791 138.008 20.2593C137.849 18.8016 137.614 17.3532 137.303 15.92C136.988 14.4929 136.618 13.0792 136.216 11.6734C135.819 10.2655 135.369 8.87191 134.921 7.47551C134.459 6.08358 134.003 4.68616 133.524 3.28953ZM106.251 13.5926C107.047 13.6036 107.841 13.6592 108.631 13.7593C109.418 13.8479 110.199 13.9752 110.978 14.11C111.754 14.2572 112.53 14.4127 113.298 14.6068C114.072 14.7909 114.836 15.0189 115.584 15.2895C114.788 15.2794 113.994 15.224 113.204 15.1238C112.417 15.0351 111.636 14.9078 110.857 14.7721C110.081 14.6241 109.306 14.4686 108.537 14.2743C107.763 14.09 107 13.8624 106.251 13.5926ZM106.251 19.7061C106.263 20.382 106.228 21.0568 106.18 21.7326C106.136 22.4148 106.039 23.0924 105.889 23.7592C105.814 24.1194 105.679 24.4642 105.487 24.7783C105.315 25.0354 105.147 25.3359 104.98 25.622C104.644 26.2 104.319 26.788 103.995 27.3756C103.339 28.5473 102.694 29.7248 102.06 30.9081C101.749 31.502 101.427 32.0903 101.13 32.6876C100.98 32.9857 100.838 33.2865 100.699 33.5852C100.631 33.7349 100.566 33.8851 100.51 34.0331C100.485 34.1057 100.455 34.182 100.441 34.2468C100.431 34.2741 100.425 34.3024 100.422 34.3311C100.421 34.3366 100.416 34.3637 100.416 34.3517C100.416 34.3404 100.413 34.3293 100.408 34.3194C100.402 34.3095 100.395 34.3012 100.385 34.2952L100.261 34.2084C100.491 34.263 100.727 34.2853 100.963 34.2746C101.215 34.2645 101.466 34.2308 101.712 34.1737C101.962 34.1151 102.208 34.041 102.45 33.9518C102.693 33.859 102.931 33.7529 103.163 33.634L103.197 33.6169L103.22 33.6214C103.456 33.6661 103.678 33.7688 103.865 33.9202C104.044 34.0708 104.172 34.2731 104.231 34.4993C104.142 34.2946 103.993 34.1223 103.802 34.006C103.621 33.8917 103.415 33.8231 103.202 33.8063L103.258 33.7936C102.811 34.1035 102.323 34.349 101.808 34.523C101.543 34.6084 101.272 34.6685 100.996 34.7027C100.704 34.7431 100.408 34.7333 100.119 34.6738L100.036 34.6554L99.9956 34.5869C99.9633 34.5319 99.9409 34.4717 99.9294 34.409C99.9256 34.3742 99.9252 34.3392 99.9285 34.3043C99.9299 34.249 99.9371 34.1939 99.9501 34.1401C99.9686 34.0485 99.9918 33.958 100.02 33.8688C100.072 33.6983 100.131 33.5353 100.193 33.3742C100.315 33.0526 100.454 32.7413 100.594 32.432C100.877 31.8145 101.17 31.2044 101.483 30.6053C102.098 29.4019 102.756 28.2233 103.434 27.0556C103.778 26.4746 104.129 25.8976 104.49 25.3242C104.675 25.0364 104.855 24.7596 105.074 24.4688C105.244 24.2127 105.372 23.9315 105.453 23.6356C105.813 22.3466 106.08 21.0334 106.251 19.7061Z" fill="black"/>
<path d="M107.948 36.1787C106.008 33.1888 103.21 34.4995 103.21 34.4995C103.21 34.4995 102.129 49.3504 108.756 49.7544C113.799 50.0619 118.138 46.9997 121.189 43.7021C122.769 41.9856 123.769 39.8154 124.047 37.4989C124.461 34.1164 125.083 29.0063 125.241 27.5322C125.483 25.2696 126.4 19.3452 129.685 19.7063C129.685 19.7063 136.554 19.7746 132.998 31.6534C132.998 31.6534 132.028 39.0878 138.332 38.1989C138.332 38.1989 137.039 34.4817 138.736 31.6534C140.433 28.8251 142.664 25.2495 142.558 22.7949C142.558 22.7949 120.311 16.2191 117.806 16.6231C119.348 17.437 120.588 18.7239 121.345 20.2947C122.101 21.8656 122.333 23.6375 122.008 25.3504C121.269 30.1539 117.714 36.6002 116.065 39.3954C115.803 39.8413 115.426 40.2079 114.972 40.4563C114.519 40.7048 114.007 40.8258 113.49 40.8064C112.535 40.768 111.439 40.6281 110.917 40.2191C109.887 39.411 107.948 36.1787 107.948 36.1787Z" fill="black"/>
<path d="M107.71 21.9325C108.182 21.5688 108.723 21.3037 109.3 21.1529C109.886 20.9878 110.499 20.9367 111.106 21.0022C111.725 21.0763 112.314 21.3112 112.815 21.6835C113.302 22.0469 113.675 22.5409 113.892 23.1082C113.484 22.7244 113.027 22.3948 112.534 22.1277C112.061 21.8864 111.549 21.7313 111.022 21.67C110.482 21.6102 109.937 21.6092 109.397 21.6671C108.846 21.7248 108.287 21.8154 107.71 21.9325ZM126.776 30.1989C127.859 30.6237 129.113 30.5757 129.915 29.8646C130.32 29.506 130.643 29.0648 130.863 28.5708C131.099 28.063 131.289 27.5345 131.429 26.9921C131.741 25.8982 131.926 24.7719 131.979 23.6356C132.004 23.0652 131.99 22.4939 131.936 21.9255C131.909 21.6397 131.868 21.3555 131.812 21.074C131.787 20.9317 131.751 20.7931 131.713 20.6535C131.683 20.5122 131.626 20.3782 131.544 20.2595C131.747 20.4773 131.899 20.737 131.991 21.0203C132.099 21.2971 132.19 21.5805 132.262 21.8687C132.399 22.4484 132.481 23.0399 132.505 23.6351C132.548 24.8295 132.403 26.0233 132.077 27.1729C131.753 28.2898 131.282 29.526 130.232 30.2815C129.715 30.6514 129.086 30.8302 128.453 30.7872C127.851 30.7474 127.271 30.544 126.776 30.1989ZM118.937 45.8586C119.333 46.1005 119.699 46.3883 120.028 46.7161C120.359 47.0347 120.663 47.3791 120.939 47.7461C121.219 48.1165 121.461 48.5146 121.659 48.9342C121.891 49.3569 121.985 49.8415 121.928 50.3201C121.733 49.9205 121.492 49.5456 121.208 49.2037C120.942 48.8527 120.662 48.5078 120.4 48.149C120.133 47.7928 119.874 47.4281 119.626 47.051C119.367 46.6709 119.137 46.2724 118.937 45.8586ZM138.332 38.1989C138.76 38.8612 139.15 39.5474 139.5 40.254C139.677 40.592 139.852 40.9255 140.049 41.2433C140.243 41.578 140.481 41.8857 140.756 42.1585C140.328 42.0989 139.935 41.893 139.642 41.5758C139.342 41.2821 139.093 40.9415 138.904 40.5673C138.714 40.2039 138.568 39.8193 138.468 39.4214C138.359 39.0235 138.313 38.611 138.332 38.1989Z" fill="black"/>
<path d="M148.192 36.4996C148.192 36.4996 140.398 37.069 139.082 40.1801L139.319 40.6265L140.189 40.1801C144.37 38.0984 146.735 40.8634 143.828 41.3508C140.918 41.8336 123.585 49.7732 123.585 49.7732C116.069 51.9005 111.665 63.3293 111.665 63.3293C112.876 62.81 114.111 62.3454 115.336 61.8489C116.593 61.4435 117.841 61.0062 119.112 60.6463C121.664 59.9258 124.266 59.3975 126.897 59.0657C129.532 58.7265 132.194 58.6441 134.846 58.8197C135.506 58.8926 136.167 58.9336 136.827 59.0293C137.479 59.1431 138.139 59.2206 138.786 59.3754C140.087 59.6311 141.354 60.0361 142.562 60.5825C141.306 60.2069 140.017 59.9492 138.713 59.8127C138.066 59.7125 137.41 59.6806 136.763 59.6214C136.112 59.5804 135.461 59.5576 134.809 59.5257C132.201 59.4862 129.593 59.6338 127.006 59.9676L125.066 60.2181L123.134 60.5598L122.169 60.7192L121.212 60.9288C120.57 61.07 119.932 61.2066 119.29 61.3387C118.014 61.6348 116.748 61.9719 115.468 62.2771C114.202 62.6232 112.945 63.0059 111.665 63.3293C91.9501 66.5634 72.7138 78.6846 71.4246 78.3612C70.131 78.0378 68.9968 67.8571 68.9968 65.2379C68.9968 62.6233 68.5139 57.6718 64.6329 57.6718C60.7566 57.6718 61.2394 61.0654 61.2394 61.0654C68.5139 63.0059 51.7055 64.4635 46.6949 65.1058C41.6842 65.7526 44.431 63.8167 44.431 63.8167C44.431 63.8167 42.9779 62.2634 41.42 64.1948C40.9339 64.8178 40.6061 65.5494 40.4649 66.3269C40.3236 67.1045 40.3732 67.9046 40.6092 68.6588C41.1057 70.3169 41.8391 72.8313 42.3311 74.8037C43.1418 78.0378 46.048 101.31 47.0183 103.574C47.9885 105.833 68.0265 111.814 110.694 108.744C114.152 108.202 117.595 107.628 121.039 107.054C124.478 106.466 127.917 105.865 131.329 105.168C133.037 104.827 134.745 104.471 136.435 104.066C138.135 103.679 139.82 103.249 141.492 102.777C143.164 102.307 144.812 101.754 146.429 101.119C148.067 100.529 149.592 99.6652 150.939 98.5632C150.345 99.2127 149.665 99.7769 148.916 100.24C148.176 100.718 147.406 101.148 146.612 101.529C145.016 102.271 143.376 102.915 141.701 103.455C138.357 104.518 134.955 105.388 131.511 106.061C128.072 106.744 124.616 107.309 121.144 107.755C117.673 108.216 114.188 108.553 110.694 108.744C110.694 108.744 109.141 118.187 108.33 126.682H169.105C169.041 118.387 169.027 107.396 169.282 97.511C169.765 78.4433 169.282 69.4697 169.282 69.4697C168.409 69.3731 167.546 69.1962 166.704 68.9412C165.862 68.6998 165.037 68.4129 164.213 68.1168C162.568 67.5246 160.965 66.8322 159.371 66.1216C157.785 65.3974 156.218 64.6412 154.674 63.8258C153.13 63.0196 151.604 62.1678 150.128 61.2294C151.773 61.8307 153.38 62.5003 154.979 63.1881C156.578 63.8669 158.159 64.5865 159.749 65.2926L164.481 67.4608C166.071 68.1623 167.624 68.9185 169.282 69.4697C169.282 69.4697 177.281 73.1092 178.01 63.8942C178.734 54.6836 170.007 34.8051 148.192 36.4996ZM151.549 66.4268C152.353 67.1857 153.055 68.0463 153.636 68.9868C153.923 69.4559 154.169 69.9524 154.428 70.4444C154.651 70.95 154.834 71.4693 155.043 71.9841C155.142 72.2419 155.221 72.5068 155.28 72.7766L155.49 73.5784C155.631 74.1109 155.734 74.6528 155.799 75.2L155.909 76.0199L155.963 76.4298L155.981 76.8398L156.036 78.4842L156.05 78.8942L156.022 79.3041L155.963 80.1241C155.927 80.6707 155.89 81.2127 155.831 81.7548C155.649 82.8298 155.476 83.9048 155.244 84.9662C154.947 86.0139 154.66 87.057 154.333 88.0864C154.465 87.0069 154.633 85.9455 154.802 84.8842C154.929 83.8183 155.002 82.7478 155.125 81.6865L155.166 80.0876L155.189 79.2905L155.203 78.8942L155.175 78.4979L155.093 76.9081L155.075 76.5118L155.016 76.1201L154.897 75.3366C154.63 73.2426 153.996 71.2119 153.025 69.3375C152.522 68.4085 151.921 67.5364 151.23 66.7365C150.542 65.9178 149.736 65.2056 148.839 64.6229C149.845 65.0535 150.764 65.6649 151.549 66.4268ZM163.033 47.9785C162.707 48.6646 162.148 49.2132 161.457 49.5272C161.114 49.6834 160.755 49.7995 160.386 49.8734C160.018 49.9256 159.647 49.9576 159.275 49.9691C158.906 49.9509 158.532 49.9509 158.168 49.9053L157.084 49.7277C156.724 49.6548 156.378 49.55 156.022 49.4589L154.998 49.1811C154.329 49.0066 153.649 48.8848 152.961 48.8166C151.569 48.6868 150.168 48.6822 148.775 48.803C145.96 49.0571 143.171 49.5416 140.435 50.2515C139.059 50.5977 137.684 50.9712 136.322 51.3766C134.95 51.7638 133.602 52.2102 132.245 52.6612C134.825 51.4177 137.502 50.3834 140.248 49.5682C143 48.7189 145.834 48.1587 148.702 47.8965C150.154 47.7812 151.614 47.8025 153.062 47.9603C153.791 48.054 154.511 48.2048 155.216 48.4112L157.243 49.0353L158.259 49.2539C158.601 49.3131 158.942 49.3268 159.284 49.3723C159.626 49.3951 159.967 49.3678 160.304 49.3587C160.639 49.3138 160.967 49.2329 161.284 49.1173C161.928 48.8957 162.472 48.4515 162.819 47.8646C162.998 47.5667 163.133 47.2445 163.22 46.908C163.322 46.568 163.377 46.2154 163.384 45.8603C163.463 46.5852 163.341 47.3179 163.033 47.9785H163.033Z" fill="#F05331"/>
<path d="M82.7358 126.683C91.7055 126.423 100.675 126.249 109.645 126.16C114.13 126.098 118.615 126.084 123.099 126.048L136.554 126.01L150.009 126.046C154.493 126.083 158.978 126.095 163.463 126.158C172.433 126.246 181.403 126.421 190.372 126.683C181.403 126.945 172.433 127.12 163.463 127.209C158.978 127.272 154.493 127.284 150.009 127.321L136.554 127.356L123.099 127.319C118.615 127.283 114.13 127.269 109.645 127.207C100.675 127.118 91.7055 126.944 82.7358 126.683ZM109.221 26.8102C110.979 26.8102 110.982 24.0771 109.221 24.0771C107.462 24.0771 107.459 26.8102 109.221 26.8102Z" fill="black"/>
</svg>
